<?xml version="1.0" encoding="UTF-8" standalone="no"?>
<svg
   version="1.1"
   viewBox="0 0 448 448"
   fill="none"
   stroke="none"
   stroke-linecap="square"
   stroke-miterlimit="10"
   id="svg142"
   sodipodi:docname="squid-black.svg"
   width="448"
   height="448"
   inkscape:version="1.2.2 (732a01da63, 2022-12-09)"
   xmlns:inkscape="http://www.inkscape.org/namespaces/inkscape"
   xmlns:sodipodi="http://sodipodi.sourceforge.net/DTD/sodipodi-0.dtd"
   xmlns="http://www.w3.org/2000/svg"
   xmlns:svg="http://www.w3.org/2000/svg">
  <defs
     id="defs146" />
  <sodipodi:namedview
     id="namedview144"
     pagecolor="#ffffff"
     bordercolor="#000000"
     borderopacity="0.25"
     inkscape:showpageshadow="2"
     inkscape:pageopacity="0"
     inkscape:pagecheckerboard="true"
     inkscape:deskcolor="#d1d1d1"
     showgrid="false"
     inkscape:zoom="2"
     inkscape:cx="338.5"
     inkscape:cy="263.75"
     inkscape:window-width="1350"
     inkscape:window-height="1080"
     inkscape:window-x="15"
     inkscape:window-y="34"
     inkscape:window-maximized="0"
     inkscape:current-layer="svg142" />
  <clipPath
     id="p.0">
    <path
       d="M 0,0 H 960 V 720 H 0 Z"
       clip-rule="nonzero"
       id="path75" />
  </clipPath>
  <g
     clip-path="url(#p.0)"
     id="g140"
     transform="translate(-256,-162.5)">
    <path
       fill="#000000"
       fill-opacity="0"
       d="M 0,0 H 960 V 720 H 0 Z"
       fill-rule="evenodd"
       id="path78" />
    <path
       fill="#000000"
       fill-opacity="0"
       d="M 502.13516,153.0971 H 551.4895 V 481.1286 H 502.13516 Z"
       fill-rule="evenodd"
       id="path80" />
    <path
       fill="#000000"
       d="m 588.97894,330.48337 v 20.26562 q -9.57813,0.25 -15.60938,5.21875 -6.03125,4.96875 -8.03125,13.5 -1.98437,8.51563 -2.10937,29.28125 -0.125,20.7656 -0.73438,27.34372 -1.125,10.57813 -4.17187,16.85938 -3.04688,6.28125 -7.53125,10.0625 -4.46875,3.79687 -11.4375,5.78125 -4.71875,1.375 -15.40625,1.375 h -6.96875 v -19.53125 h 3.85937 q 12.92188,0 17.15625,-4.65625 4.23438,-4.65625 4.23438,-20.95313 0,-31.07809 1.10937,-39.42184 1.98438,-13.79687 7.95313,-22.0625 5.96875,-8.26562 16.92187,-12.875 -14.29687,-6.82812 -20.14062,-18.07812 -5.84375,-11.26563 -5.84375,-38 0,-24.25 -0.625,-28.96877 -0.875,-8.32812 -4.92188,-11.625 -4.03125,-3.29687 -15.84375,-3.29687 h -3.85937 v -19.51563 h 6.96875 q 12.1875,0 17.65625,1.98438 7.95312,2.73437 13.17187,9.20312 5.21875,6.46875 6.76563,16.29688 1.5625,9.81251 1.6875,32.20314 0.125,22.375 2.10937,30.89062 2,8.51563 8.03125,13.5 6.03125,4.96875 15.60938,5.21875 z"
       fill-rule="nonzero"
       id="path82" />
    <path
       fill="#000000"
       fill-opacity="0"
       d="m 355.1063,153.0971 h 49.35434 V 481.1286 H 355.1063 Z"
       fill-rule="evenodd"
       id="path84" />
    <path
       fill="#000000"
       d="m 371.20004,330.48337 q 9.5625,-0.25 15.59375,-5.15625 6.03125,-4.92188 8.01562,-13.5 2,-8.57813 2.125,-29.34375 0.125,-20.76563 0.75,-27.35939 1.10938,-10.4375 4.15625,-16.78125 3.04688,-6.34375 7.51563,-10.125 4.48437,-3.79688 11.45312,-5.79688 4.71875,-1.23437 15.42188,-1.23437 h 6.95312 v 19.51562 h -3.84375 q -12.9375,0 -17.17187,4.67188 -4.21875,4.65625 -4.21875,20.81251 0,32.57813 -1.375,41.17188 -2.23438,13.29687 -7.64063,20.51562 -5.40625,7.20313 -16.96875,12.79688 13.67188,5.71875 19.82813,17.46875 6.15625,11.75 6.15625,38.48437 0,24.24997 0.5,28.85935 0.98437,8.45312 5.03125,11.79687 4.04687,3.35938 15.85937,3.35938 h 3.84375 v 19.53125 h -6.95312 q -12.1875,0 -17.65625,-1.98438 -7.96875,-2.85937 -13.1875,-9.26562 -5.21875,-6.40625 -6.78125,-16.23438 -1.54688,-9.82812 -1.67188,-32.20309 -0.125,-22.375 -2.125,-30.95313 -1.98437,-8.59375 -8.01562,-13.5625 -6.03125,-4.96875 -15.59375,-5.21875 z"
       fill-rule="nonzero"
       id="path86" />
    <path
       fill="#000000"
       fill-opacity="0"
       d="m 409.15158,481.26938 c -5.4855,-13.15301 -21.78622,-34.68863 -33.49661,-26.56708 -17.55634,12.17594 -7.80393,46.68701 -25.35764,58.86673 -12.15967,8.43708 -27.85513,-11.79971 -42.64453,-12.362"
       fill-rule="evenodd"
       id="path88" />
    <path
       stroke="#000000"
       stroke-width="16"
       stroke-linejoin="round"
       stroke-linecap="butt"
       d="m 409.15158,481.26938 c -5.4855,-13.15301 -21.78622,-34.68863 -33.49661,-26.56708 -17.55634,12.17594 -7.80393,46.68701 -25.35764,58.86673 -12.15967,8.43708 -27.85513,-11.79971 -42.64453,-12.362"
       fill-rule="evenodd"
       id="path90" />
    <path
       fill="#000000"
       fill-opacity="0"
       d="m 436.06174,472.20282 c 0.99179,11.15747 -3.44052,25.2807 -8.67114,36.37402 -3.26062,6.91523 -9.89185,9.24872 -13.15442,16.16236 -9.43436,19.99212 -5.04968,47.85455 -16.64475,65.41162"
       fill-rule="evenodd"
       id="path92" />
    <path
       stroke="#000000"
       stroke-width="16"
       stroke-linejoin="round"
       stroke-linecap="butt"
       d="m 436.06174,472.20282 c 0.99179,11.15747 -3.44052,25.2807 -8.67114,36.37402 -3.26062,6.91523 -9.89185,9.24872 -13.15442,16.16236 -9.43436,19.99212 -5.04968,47.85455 -16.64475,65.41162"
       fill-rule="evenodd"
       id="path94" />
    <path
       fill="#000000"
       fill-opacity="0"
       d="m 453.00986,481.25177 c 6.40741,5.32971 6.32632,16.84229 11.66455,23.49564 4.28211,5.33703 9.23865,14.93252 5.37607,20.76492 -5.91077,8.92511 -24.35513,10.91888 -22.51325,21.76575 1.69968,10.00933 13.10779,14.17871 18.13291,22.61682 6.24261,10.48248 9.4993,23.93939 8.85965,36.61432"
       fill-rule="evenodd"
       id="path96" />
    <path
       stroke="#000000"
       stroke-width="16"
       stroke-linejoin="round"
       stroke-linecap="butt"
       d="m 453.00986,481.25177 c 6.40741,5.32971 6.32632,16.84229 11.66455,23.49564 4.28211,5.33703 9.23865,14.93252 5.37607,20.76492 -5.91077,8.92511 -24.35513,10.91888 -22.51325,21.76575 1.69968,10.00933 13.10779,14.17871 18.13291,22.61682 6.24261,10.48248 9.4993,23.93939 8.85965,36.61432"
       fill-rule="evenodd"
       id="path98" />
    <path
       fill="#000000"
       fill-opacity="0"
       d="m 550.84796,481.26938 c 5.48547,-13.15301 21.78625,-34.68863 33.49658,-26.56708 17.55634,12.17594 7.80396,46.68701 25.35767,58.86673 12.15967,8.43708 27.85516,-11.79971 42.64453,-12.362"
       fill-rule="evenodd"
       id="path100" />
    <path
       stroke="#000000"
       stroke-width="16"
       stroke-linejoin="round"
       stroke-linecap="butt"
       d="m 550.84796,481.26938 c 5.48547,-13.15301 21.78625,-34.68863 33.49658,-26.56708 17.55634,12.17594 7.80396,46.68701 25.35767,58.86673 12.15967,8.43708 27.85516,-11.79971 42.64453,-12.362"
       fill-rule="evenodd"
       id="path102" />
    <path
       fill="#000000"
       fill-opacity="0"
       d="m 526.8751,486.2336 c -7.94141,-1.98645 -20.41882,-2.50479 -24.08133,4.81625 -5.92554,11.84461 -11.021,32.38764 0,39.7323 18.71439,12.47174 54.95346,-16.30755 67.4252,2.4068 8.76849,13.15753 -8.0846,32.16602 -19.26508,43.3465 -6.3457,6.34564 -3.20874,22.47131 4.81623,26.48816"
       fill-rule="evenodd"
       id="path104" />
    <path
       stroke="#000000"
       stroke-width="16"
       stroke-linejoin="round"
       stroke-linecap="butt"
       d="m 526.8751,486.2336 c -7.94141,-1.98645 -20.41882,-2.50479 -24.08133,4.81625 -5.92554,11.84461 -11.021,32.38764 0,39.7323 18.71439,12.47174 54.95346,-16.30755 67.4252,2.4068 8.76849,13.15753 -8.0846,32.16602 -19.26508,43.3465 -6.3457,6.34564 -3.20874,22.47131 4.81623,26.48816"
       fill-rule="evenodd"
       id="path106" />
    <path
       fill="#000000"
       d="m 470.01837,395.57156 v 0 c 3.71381,-7.21884 -1.48251,-18.3941 -11.60629,-24.96063 v 0 c -10.12378,-6.56653 -21.34134,-6.03775 -25.05512,1.18109 v 0 c -3.7138,7.21884 1.48252,18.3941 11.60629,24.96063 v 0 c 10.12378,6.56656 21.34134,6.03775 25.05512,-1.18109 z"
       fill-rule="evenodd"
       id="path108" />
    <path
       stroke="#000000"
       stroke-width="1"
       stroke-linejoin="round"
       stroke-linecap="butt"
       d="m 470.01837,395.57156 v 0 c 3.71381,-7.21884 -1.48251,-18.3941 -11.60629,-24.96063 v 0 c -10.12378,-6.56653 -21.34134,-6.03775 -25.05512,1.18109 v 0 c -3.7138,7.21884 1.48252,18.3941 11.60629,24.96063 v 0 c 10.12378,6.56656 21.34134,6.03775 25.05512,-1.18109 z"
       fill-rule="evenodd"
       id="path110" />
    <path
       fill="#000000"
       d="m 452.67996,366.40134 -27.63214,-15.5993 8.64935,33.35827 27.63214,15.59931 z"
       fill-rule="evenodd"
       id="path112" />
    <path
       fill="#000000"
       fill-opacity="0"
       d="m 452.67996,366.40134 -18.98279,17.75897"
       fill-rule="evenodd"
       id="path114" />
    <path
       fill="#000000"
       fill-opacity="0"
       d="m 452.67996,366.40134 -27.63214,-15.5993 8.64935,33.35827 27.63214,15.59931 z"
       fill-rule="evenodd"
       id="path116" />
    <path
       stroke="#000000"
       stroke-width="1"
       stroke-linejoin="round"
       stroke-linecap="butt"
       d="m 452.67996,366.40134 -18.98279,17.75897"
       fill-rule="evenodd"
       id="path118" />
    <path
       stroke="#000000"
       stroke-width="1"
       stroke-linejoin="round"
       stroke-linecap="butt"
       d="m 452.67996,366.40134 -27.63214,-15.5993 8.64935,33.35827 27.63214,15.59931 z"
       fill-rule="evenodd"
       id="path120" />
    <path
       fill="#000000"
       d="m 490.25067,395.57025 v 0 c -3.71381,-7.21884 1.48251,-18.3941 11.60629,-24.96063 v 0 c 10.12378,-6.56653 21.34134,-6.03775 25.05515,1.18109 v 0 c 3.71374,7.21884 -1.48255,18.3941 -11.60632,24.96063 v 0 c -10.12378,6.56656 -21.34135,6.03775 -25.05512,-1.18109 z"
       fill-rule="evenodd"
       id="path122" />
    <path
       stroke="#000000"
       stroke-width="1"
       stroke-linejoin="round"
       stroke-linecap="butt"
       d="m 490.25067,395.57025 v 0 c -3.71381,-7.21884 1.48251,-18.3941 11.60629,-24.96063 v 0 c 10.12378,-6.56653 21.34134,-6.03775 25.05515,1.18109 v 0 c 3.71374,7.21884 -1.48255,18.3941 -11.60632,24.96063 v 0 c -10.12378,6.56656 -21.34135,6.03775 -25.05512,-1.18109 z"
       fill-rule="evenodd"
       id="path124" />
    <path
       fill="#000000"
       d="m 507.31873,366.40265 27.63214,-15.5993 -8.64935,33.35827 -27.63214,15.59931 z"
       fill-rule="evenodd"
       id="path126" />
    <path
       fill="#000000"
       fill-opacity="0"
       d="m 507.31873,366.40265 18.98279,17.75897"
       fill-rule="evenodd"
       id="path128" />
    <path
       fill="#000000"
       fill-opacity="0"
       d="m 507.31873,366.40265 27.63214,-15.5993 -8.64935,33.35827 -27.63214,15.59931 z"
       fill-rule="evenodd"
       id="path130" />
    <path
       stroke="#000000"
       stroke-width="1"
       stroke-linejoin="round"
       stroke-linecap="butt"
       d="m 507.31873,366.40265 18.98279,17.75897"
       fill-rule="evenodd"
       id="path132" />
    <path
       stroke="#000000"
       stroke-width="1"
       stroke-linejoin="round"
       stroke-linecap="butt"
       d="m 507.31873,366.40265 27.63214,-15.5993 -8.64935,33.35827 -27.63214,15.59931 z"
       fill-rule="evenodd"
       id="path134" />
    <path
       fill="#000000"
       fill-opacity="0"
       d="M 394.34647,239.46194 V 110.07611 h 171.3071 v 129.38583 z"
       fill-rule="evenodd"
       id="path136" />
    <path
       fill="#000000"
       d="m 513.5102,224.64944 h -17.32809 l -16.875,-42.95313 -16.71875,42.95313 h -17.1875 l 26.60937,-61.5625 h 14.6875 z"
       fill-rule="nonzero"
       id="path138" />
  </g>
</svg>
